<svg width="16" height="16" viewBox="0 0 16 16" fill="none" xmlns="http://www.w3.org/2000/svg">
<path d="M3.79039 3.13404L3.79038 3.13406C3.64097 3.26343 3.41501 3.24731 3.28555 3.09788C3.28553 3.09786 3.28551 3.09783 3.28549 3.09781L3.39888 2.99962C3.32368 2.91289 3.33308 2.78151 3.41992 2.70631L3.79039 3.13404ZM3.79039 3.13404C4.95787 2.1228 6.45285 1.56582 8 1.56582C9.71887 1.56582 11.3342 2.23489 12.5496 3.45037C13.7651 4.66584 14.4342 6.28113 14.4342 8C14.4342 9.71887 13.7651 11.3342 12.5496 12.5496C11.3342 13.7651 9.71887 14.4342 8 14.4342C6.28113 14.4342 4.66584 13.7651 3.45037 12.5496C2.23489 11.3342 1.56582 9.71887 1.56582 8C1.56582 6.40133 2.15583 4.86901 3.22736 3.68507L3.22739 3.68504C3.36005 3.5384 3.3485 3.31212 3.20212 3.17951L3.20204 3.17944C3.05556 3.04693 2.82922 3.05804 2.69657 3.20477C1.50584 4.52053 0.85 6.22363 0.85 8C0.85 9.90952 1.59394 11.7056 2.94418 13.0558C4.29443 14.4061 6.09048 15.15 8 15.15C9.90952 15.15 11.7056 14.4061 13.0558 13.0558C14.4061 11.7056 15.15 9.90952 15.15 8C15.15 6.09048 14.4061 4.29443 13.0558 2.94418C11.7056 1.59394 9.90952 0.85 8 0.85C6.28085 0.85 4.61944 1.4689 3.32172 2.59293L3.79039 3.13404ZM9.64056 7.35752L9.64051 7.35747C9.49183 7.22754 9.47629 7.00157 9.60644 6.85258C10.0229 6.37547 10.222 5.90028 10.222 5.43866C10.222 4.9396 9.99316 4.51526 9.59123 4.21149C9.18664 3.90571 8.60242 3.7201 7.89949 3.7201C7.03437 3.7201 6.52299 4.00148 6.25047 4.22653L9.64056 7.35752ZM9.64056 7.35752C9.78961 7.48764 10.0156 7.47221 10.1456 7.32329C10.6644 6.72896 10.9378 6.09432 10.9378 5.43866C10.9378 4.74634 10.6257 4.11965 10.0659 3.67629L10.0659 3.67628M9.64056 7.35752L10.0659 3.67628M10.0659 3.67628C9.50551 3.23245 8.75345 3.00439 7.89938 3.00439M10.0659 3.67628L7.89938 3.00439M7.64135 6.803L7.64135 6.803C7.7252 6.73183 7.81446 6.66327 7.90545 6.59354M7.64135 6.803L5.44533 5.87009C5.64673 6.03252 5.91178 6.124 6.17502 6.124C6.65119 6.124 6.86547 5.80774 7.00396 5.60334L7.00891 5.59604C7.00891 5.59603 7.00891 5.59603 7.00892 5.59603C7.00892 5.59602 7.00893 5.59601 7.00894 5.59599C7.09918 5.46299 7.1701 5.36126 7.28465 5.2858C7.39607 5.2124 7.56462 5.15479 7.86147 5.15479C7.96375 5.15479 8.17055 5.16649 8.34647 5.24135C8.43287 5.27811 8.50452 5.32708 8.55423 5.39045C8.60221 5.45161 8.63624 5.53425 8.63624 5.65271C8.63624 5.82965 8.55537 5.98975 8.41736 6.14749C8.27781 6.30701 8.093 6.44956 7.90545 6.59354M7.64135 6.803L7.64049 6.80374M7.64135 6.803L7.64049 6.80374M7.90545 6.59354L7.99669 6.7126L7.90535 6.59362C7.90538 6.59359 7.90541 6.59357 7.90545 6.59354ZM7.64049 6.80374C7.41972 6.99402 7.17602 7.24174 6.98846 7.59395C6.80046 7.947 6.67294 8.39732 6.67294 8.98801C6.67294 9.30771 6.70986 9.61257 6.87089 9.83753C7.04074 10.0748 7.32147 10.1892 7.72314 10.1892C8.07294 10.1892 8.36623 10.1105 8.56687 9.92718C8.73736 9.77143 8.82345 9.55608 8.82345 9.31506C8.82345 9.00163 8.8252 8.80013 8.89253 8.61518C8.9573 8.43726 9.08987 8.25929 9.39092 8.02384M7.64049 6.80374L9.40137 8.01568L9.39092 8.02384M9.04836 7.38233L9.0484 7.38229C9.20226 7.25821 9.42754 7.28227 9.55167 7.43619C9.67575 7.59005 9.65169 7.81533 9.49777 7.93946M9.04836 7.38233L9.30919 7.89735L9.40144 8.01563C9.4291 7.99408 9.46173 7.96857 9.49777 7.93946M9.04836 7.38233C9.01859 7.40635 8.99148 7.42755 8.96684 7.44681L8.96136 7.45108L8.96098 7.45138L8.95036 7.45963L8.94996 7.45994M9.04836 7.38233L8.94996 7.45994M9.49777 7.93946L9.40361 7.82269L9.49788 7.93937C9.49784 7.9394 9.49781 7.93943 9.49777 7.93946ZM9.39092 8.02384L9.29851 7.90569L9.39076 8.02396L9.39092 8.02384ZM8.94996 7.45994C8.56234 7.76313 8.34454 8.03875 8.22908 8.34407C8.1155 8.64442 8.10763 8.95844 8.10763 9.31517C8.10763 9.35955 8.10471 9.37821 8.08577 9.39679C8.0613 9.42079 7.97716 9.47343 7.72314 9.47343C7.60146 9.47343 7.53443 9.46049 7.49838 9.4482C7.46847 9.43801 7.46078 9.42876 7.45772 9.42508L7.45739 9.42468L7.45733 9.42462M8.94996 7.45994L7.45733 9.42462M7.45733 9.42462C7.44624 9.41143 7.42687 9.3761 7.4117 9.29824C7.39702 9.22285 7.38875 9.12084 7.38875 8.98801C7.38875 8.52858 7.48164 8.19613 7.61414 7.94248C7.7469 7.68834 7.92395 7.50451 8.10617 7.34739C8.1744 7.28956 8.2535 7.22878 8.34126 7.16143L8.34129 7.16141M7.45733 9.42462L8.34129 7.16141M8.34129 7.16141C8.34761 7.15656 8.35397 7.15167 8.36038 7.14676C8.77055 6.832 9.35216 6.38569 9.35216 5.65271C9.35216 5.28487 9.2005 4.97526 8.93046 4.76101C8.66381 4.54945 8.29276 4.43897 7.86147 4.43897C7.41001 4.43897 7.09836 4.54493 6.87045 4.70078C6.64806 4.85285 6.51775 5.04497 6.41992 5.18919L6.4165 5.19423L6.41648 5.19427M8.34129 7.16141L6.41648 5.19427M6.41648 5.19427C6.34566 5.29872 6.30832 5.34928 6.27394 5.3783M6.41648 5.19427L6.27394 5.3783M7.89938 3.00439C6.8378 3.00439 6.17076 3.36382 5.79451 3.6747M7.89938 3.00439L5.79451 3.6747M5.79451 3.6747C5.3452 4.0459 5.0619 4.55548 5.0619 5.04858C5.0619 5.3756 5.19687 5.66973 5.44532 5.87008L5.79451 3.6747ZM6.27394 5.3783C6.25157 5.39718 6.22976 5.40818 6.17502 5.40818M6.27394 5.3783L6.17502 5.40818M6.17502 5.40818C6.09162 5.40818 5.98743 5.38149 5.90802 5.32288M6.17502 5.40818L5.90802 5.32288M5.90802 5.32288C5.83448 5.26861 5.77782 5.1848 5.77782 5.04858M5.90802 5.32288L5.77782 5.04858M5.77782 5.04858C5.77782 4.85684 5.89111 4.52339 6.25045 4.22654L5.77782 5.04858ZM8.67155 10.7329L8.6715 10.7329C8.41997 10.4814 8.08737 10.3417 7.73564 10.3417C7.00924 10.3417 6.42118 10.9385 6.42118 11.6688C6.42118 12.3991 7.00924 12.9958 7.73564 12.9958C8.09166 12.9958 8.42688 12.8538 8.67846 12.5977L8.57144 12.4926L8.67846 12.5977C8.92214 12.3496 9.0627 12.0119 9.0627 11.6688C9.0627 11.317 8.92296 10.9844 8.67155 10.7329ZM7.73564 12.28C7.40801 12.28 7.137 12.0081 7.137 11.6688C7.137 11.3295 7.40801 11.0575 7.73564 11.0575C8.06538 11.0575 8.34678 11.339 8.34678 11.6688C8.34678 11.9986 8.06538 12.28 7.73564 12.28Z" fill="#FAFAFA" stroke="#FAFAFA" stroke-width="0.3"/>
</svg>
